<svg width="40" height="40" viewBox="0 0 40 40" fill="none" xmlns="http://www.w3.org/2000/svg">
<path d="M16.3077 2C15.002 2 13.7498 2.54184 12.8266 3.50631C11.9033 4.47078 11.3846 5.77889 11.3846 7.14286V12.818C12.1893 12.5801 13.0133 12.4208 13.8462 12.3423V7.14286C13.8462 6.46087 14.1055 5.80682 14.5672 5.32458C15.0288 4.84235 15.6549 4.57143 16.3077 4.57143H23.6923V11C23.6923 12.023 24.0813 13.0041 24.7738 13.7274C25.4662 14.4508 26.4054 14.8571 27.3846 14.8571H33.5385V32.8571C33.5385 33.5391 33.2791 34.1932 32.8175 34.6754C32.3559 35.1577 31.7298 35.4286 31.077 35.4286H25.5213C24.7483 36.4057 23.8548 37.2697 22.8628 38H31.077C32.3826 38 33.6348 37.4582 34.5581 36.4937C35.4813 35.5292 36 34.2211 36 32.8571V13.3503C35.9992 12.3277 35.6096 11.3472 34.917 10.6246L27.744 3.12886C27.0518 2.40624 26.1134 2.00022 25.1348 2H16.3077ZM33.029 12.2857H27.3846C27.0582 12.2857 26.7452 12.1503 26.5144 11.9091C26.2835 11.668 26.1539 11.341 26.1539 11V5.10371L33.029 12.2857Z" fill="#1273EB"/>
<path d="M26.1538 26.4286C26.1538 29.4975 24.9868 32.4407 22.9095 34.6108C20.8322 36.7809 18.0147 38 15.0769 38C12.1391 38 9.32168 36.7809 7.24436 34.6108C5.16703 32.4407 4 29.4975 4 26.4286C4 23.3596 5.16703 20.4164 7.24436 18.2463C9.32168 16.0763 12.1391 14.8571 15.0769 14.8571C18.0147 14.8571 20.8322 16.0763 22.9095 18.2463C24.9868 20.4164 26.1538 23.3596 26.1538 26.4286V26.4286ZM16.3077 21.2857C16.3077 20.9447 16.178 20.6177 15.9472 20.3766C15.7164 20.1355 15.4033 20 15.0769 20C14.7505 20 14.4375 20.1355 14.2066 20.3766C13.9758 20.6177 13.8462 20.9447 13.8462 21.2857V25.1429H10.1538C9.82743 25.1429 9.51438 25.2783 9.28356 25.5194C9.05275 25.7606 8.92308 26.0876 8.92308 26.4286C8.92308 26.7696 9.05275 27.0966 9.28356 27.3377C9.51438 27.5788 9.82743 27.7143 10.1538 27.7143H13.8462V31.5714C13.8462 31.9124 13.9758 32.2394 14.2066 32.4806C14.4375 32.7217 14.7505 32.8571 15.0769 32.8571C15.4033 32.8571 15.7164 32.7217 15.9472 32.4806C16.178 32.2394 16.3077 31.9124 16.3077 31.5714V27.7143H20C20.3264 27.7143 20.6395 27.5788 20.8703 27.3377C21.1011 27.0966 21.2308 26.7696 21.2308 26.4286C21.2308 26.0876 21.1011 25.7606 20.8703 25.5194C20.6395 25.2783 20.3264 25.1429 20 25.1429H16.3077V21.2857Z" fill="#1273EB"/>
</svg>
