<svg width="40" height="40" viewBox="0 0 40 40" fill="none" xmlns="http://www.w3.org/2000/svg">
<path d="M24.0286 19.9999L36.3143 7.7428C36.8523 7.20479 37.1545 6.47509 37.1545 5.71423C37.1545 4.95337 36.8523 4.22367 36.3143 3.68566C35.7763 3.14765 35.0466 2.8454 34.2857 2.8454C33.5249 2.8454 32.7952 3.14765 32.2571 3.68566L20 15.9714L7.74286 3.68566C7.20485 3.14765 6.47515 2.8454 5.71429 2.8454C4.95342 2.8454 4.22372 3.14765 3.68571 3.68566C3.1477 4.22367 2.84545 4.95337 2.84545 5.71423C2.84545 6.47509 3.1477 7.20479 3.68571 7.7428L15.9714 19.9999L3.68571 32.2571C3.41792 32.5227 3.20536 32.8387 3.06031 33.1869C2.91526 33.535 2.84058 33.9085 2.84058 34.2857C2.84058 34.6628 2.91526 35.0363 3.06031 35.3844C3.20536 35.7326 3.41792 36.0486 3.68571 36.3142C3.95132 36.582 4.26733 36.7946 4.61549 36.9396C4.96366 37.0847 5.33711 37.1594 5.71429 37.1594C6.09146 37.1594 6.46491 37.0847 6.81308 36.9396C7.16125 36.7946 7.47725 36.582 7.74286 36.3142L20 24.0285L32.2571 36.3142C32.5228 36.582 32.8388 36.7946 33.1869 36.9396C33.5351 37.0847 33.9085 37.1594 34.2857 37.1594C34.6629 37.1594 35.0363 37.0847 35.3845 36.9396C35.7327 36.7946 36.0487 36.582 36.3143 36.3142C36.5821 36.0486 36.7946 35.7326 36.9397 35.3844C37.0847 35.0363 37.1594 34.6628 37.1594 34.2857C37.1594 33.9085 37.0847 33.535 36.9397 33.1869C36.7946 32.8387 36.5821 32.5227 36.3143 32.2571L24.0286 19.9999Z" fill="#D32F2F"/>
</svg>
