<svg width="40" height="40" viewBox="0 0 40 40" fill="none" xmlns="http://www.w3.org/2000/svg">
<path d="M32.4041 6.33601C33.0262 5.73251 33.854 5.39887 34.7129 5.40549C35.5718 5.41211 36.3946 5.75848 37.0077 6.3715C37.6208 6.98452 37.9761 7.81625 37.9988 8.69118C38.0215 9.56611 37.7098 10.4158 37.1294 11.061L19.5088 33.5159C19.2059 33.8485 18.8402 34.1153 18.4336 34.3006C18.0271 34.4858 17.5881 34.5856 17.1429 34.594C16.6976 34.6024 16.2553 34.5192 15.8423 34.3495C15.4294 34.1797 15.0542 33.9268 14.7394 33.6059L3.05418 21.699C2.72876 21.39 2.46776 21.0174 2.28673 20.6034C2.1057 20.1894 2.00836 19.7425 2.00052 19.2893C1.99267 18.8362 2.07448 18.386 2.24106 17.9658C2.40764 17.5455 2.65559 17.1638 2.9701 16.8433C3.28462 16.5228 3.65926 16.2702 4.07168 16.1004C4.48409 15.9307 4.92584 15.8473 5.37056 15.8553C5.81528 15.8633 6.25387 15.9625 6.66015 16.147C7.06644 16.3314 7.4321 16.5974 7.73532 16.929L16.9828 26.3474L32.3202 6.43501C32.3478 6.40036 32.3773 6.36731 32.4085 6.33601H32.4041Z" fill="#3ABA6F"/>
</svg>
