<svg width="15" height="15" viewBox="0 0 15 15" fill="none" xmlns="http://www.w3.org/2000/svg">
<path d="M9.01093 7.49997L13.6181 2.90354C13.8198 2.70179 13.9332 2.42815 13.9332 2.14283C13.9332 1.85751 13.8198 1.58387 13.6181 1.38211C13.4163 1.18036 13.1427 1.06702 12.8574 1.06702C12.572 1.06702 12.2984 1.18036 12.0966 1.38211L7.50021 5.98926L2.90379 1.38211C2.70203 1.18036 2.42839 1.06702 2.14307 1.06702C1.85775 1.06702 1.58411 1.18036 1.38236 1.38211C1.1806 1.58387 1.06726 1.85751 1.06726 2.14283C1.06726 2.42815 1.1806 2.70179 1.38236 2.90354L5.9895 7.49997L1.38236 12.0964C1.28193 12.196 1.20223 12.3145 1.14783 12.4451C1.09344 12.5756 1.06543 12.7157 1.06543 12.8571C1.06543 12.9986 1.09344 13.1386 1.14783 13.2692C1.20223 13.3997 1.28193 13.5182 1.38236 13.6178C1.48196 13.7183 1.60046 13.798 1.73102 13.8524C1.86159 13.9068 2.00163 13.9348 2.14307 13.9348C2.28451 13.9348 2.42455 13.9068 2.55512 13.8524C2.68568 13.798 2.80418 13.7183 2.90379 13.6178L7.50021 9.01069L12.0966 13.6178C12.1962 13.7183 12.3147 13.798 12.4453 13.8524C12.5759 13.9068 12.7159 13.9348 12.8574 13.9348C12.9988 13.9348 13.1388 13.9068 13.2694 13.8524C13.4 13.798 13.5185 13.7183 13.6181 13.6178C13.7185 13.5182 13.7982 13.3997 13.8526 13.2692C13.907 13.1386 13.935 12.9986 13.935 12.8571C13.935 12.7157 13.907 12.5756 13.8526 12.4451C13.7982 12.3145 13.7185 12.196 13.6181 12.0964L9.01093 7.49997Z" fill="#374957"/>
</svg>
