<svg width="40" height="40" viewBox="0 0 40 40" fill="none" xmlns="http://www.w3.org/2000/svg">
<path d="M29.88 7.87998C30.4435 7.34353 31.1933 7.04696 31.9713 7.05285C32.7493 7.05874 33.4945 7.36662 34.0498 7.91153C34.6051 8.45644 34.927 9.19575 34.9475 9.97347C34.9681 10.7512 34.6857 11.5065 34.16 12.08L18.2 32.04C17.9256 32.3356 17.5944 32.5728 17.2261 32.7374C16.8579 32.9021 16.4603 32.9908 16.057 32.9983C15.6537 33.0057 15.2531 32.9318 14.879 32.7809C14.505 32.63 14.1652 32.4052 13.88 32.12L3.29602 21.536C3.00127 21.2613 2.76486 20.9301 2.6009 20.5621C2.43693 20.1941 2.34876 19.7969 2.34165 19.3941C2.33455 18.9913 2.40865 18.5911 2.55953 18.2176C2.71041 17.844 2.93499 17.5047 3.21987 17.2198C3.50474 16.9349 3.84408 16.7104 4.21763 16.5595C4.59118 16.4086 4.9913 16.3345 5.39411 16.3416C5.79692 16.3487 6.19418 16.4369 6.56217 16.6009C6.93017 16.7648 7.26137 17.0012 7.53602 17.296L15.912 25.668L29.804 7.96798C29.829 7.93718 29.8557 7.9078 29.884 7.87998H29.88Z" fill="white"/>
</svg>
