<svg width="40" height="40" viewBox="0 0 40 40" fill="none" xmlns="http://www.w3.org/2000/svg">
<path d="M8 6C7.46957 6 6.96086 6.21071 6.58579 6.58579C6.21071 6.96086 6 7.46957 6 8V24C6 24.5304 6.21071 25.0391 6.58579 25.4142C6.96086 25.7893 7.46957 26 8 26H27.172C28.2328 26.0002 29.25 26.4218 30 27.172L34 31.172V8C34 7.46957 33.7893 6.96086 33.4142 6.58579C33.0391 6.21071 32.5304 6 32 6H8ZM32 4C33.0609 4 34.0783 4.42143 34.8284 5.17157C35.5786 5.92172 36 6.93913 36 8V33.586C36 33.7839 35.9412 33.9773 35.8312 34.1418C35.7212 34.3062 35.5649 34.4344 35.382 34.5099C35.1991 34.5855 34.998 34.6052 34.8039 34.5664C34.6099 34.5276 34.4317 34.4321 34.292 34.292L28.586 28.586C28.211 28.2109 27.7024 28.0001 27.172 28H8C6.93913 28 5.92172 27.5786 5.17157 26.8284C4.42143 26.0783 4 25.0609 4 24V8C4 6.93913 4.42143 5.92172 5.17157 5.17157C5.92172 4.42143 6.93913 4 8 4H32Z" fill="white" fill-opacity="0.61"/>
<path d="M10 11C10 10.7348 10.1054 10.4804 10.2929 10.2929C10.4804 10.1054 10.7348 10 11 10H29C29.2652 10 29.5196 10.1054 29.7071 10.2929C29.8946 10.4804 30 10.7348 30 11C30 11.2652 29.8946 11.5196 29.7071 11.7071C29.5196 11.8946 29.2652 12 29 12H11C10.7348 12 10.4804 11.8946 10.2929 11.7071C10.1054 11.5196 10 11.2652 10 11ZM10 16C10 15.7348 10.1054 15.4804 10.2929 15.2929C10.4804 15.1054 10.7348 15 11 15H29C29.2652 15 29.5196 15.1054 29.7071 15.2929C29.8946 15.4804 30 15.7348 30 16C30 16.2652 29.8946 16.5196 29.7071 16.7071C29.5196 16.8946 29.2652 17 29 17H11C10.7348 17 10.4804 16.8946 10.2929 16.7071C10.1054 16.5196 10 16.2652 10 16ZM10 21C10 20.7348 10.1054 20.4804 10.2929 20.2929C10.4804 20.1054 10.7348 20 11 20H21C21.2652 20 21.5196 20.1054 21.7071 20.2929C21.8946 20.4804 22 20.7348 22 21C22 21.2652 21.8946 21.5196 21.7071 21.7071C21.5196 21.8946 21.2652 22 21 22H11C10.7348 22 10.4804 21.8946 10.2929 21.7071C10.1054 21.5196 10 21.2652 10 21Z" fill="white" fill-opacity="0.61"/>
</svg>
