<svg width="16" height="16" viewBox="0 0 16 16" fill="none" xmlns="http://www.w3.org/2000/svg">
<path d="M9.61143 7.99997L14.5257 3.09712C14.7409 2.88191 14.8618 2.59003 14.8618 2.28569C14.8618 1.98134 14.7409 1.68946 14.5257 1.47426C14.3105 1.25905 14.0186 1.13815 13.7143 1.13815C13.4099 1.13815 13.1181 1.25905 12.9029 1.47426L8 6.38854L3.09714 1.47426C2.88194 1.25905 2.59006 1.13815 2.28571 1.13815C1.98137 1.13815 1.68949 1.25905 1.47429 1.47426C1.25908 1.68946 1.13818 1.98134 1.13818 2.28569C1.13818 2.59003 1.25908 2.88191 1.47429 3.09712L6.38857 7.99997L1.47429 12.9028C1.36717 13.0091 1.28215 13.1355 1.22412 13.2747C1.1661 13.414 1.13623 13.5634 1.13623 13.7143C1.13623 13.8651 1.1661 14.0145 1.22412 14.1538C1.28215 14.293 1.36717 14.4194 1.47429 14.5257C1.58053 14.6328 1.70693 14.7178 1.8462 14.7758C1.98547 14.8339 2.13484 14.8637 2.28571 14.8637C2.43659 14.8637 2.58596 14.8339 2.72523 14.7758C2.8645 14.7178 2.9909 14.6328 3.09714 14.5257L8 9.6114L12.9029 14.5257C13.0091 14.6328 13.1355 14.7178 13.2748 14.7758C13.414 14.8339 13.5634 14.8637 13.7143 14.8637C13.8652 14.8637 14.0145 14.8339 14.1538 14.7758C14.2931 14.7178 14.4195 14.6328 14.5257 14.5257C14.6328 14.4194 14.7179 14.293 14.7759 14.1538C14.8339 14.0145 14.8638 13.8651 14.8638 13.7143C14.8638 13.5634 14.8339 13.414 14.7759 13.2747C14.7179 13.1355 14.6328 13.0091 14.5257 12.9028L9.61143 7.99997Z" fill="white"/>
</svg>
