<svg width="40" height="40" viewBox="0 0 40 40" fill="none" xmlns="http://www.w3.org/2000/svg">
<path d="M16.0769 2C14.6896 2 13.3592 2.54184 12.3782 3.50631C11.3973 4.47078 10.8462 5.77889 10.8462 7.14286V12.818C11.7011 12.5801 12.5766 12.4208 13.4615 12.3423V7.14286C13.4615 6.46087 13.7371 5.80682 14.2276 5.32458C14.718 4.84235 15.3833 4.57143 16.0769 4.57143H23.9231V11C23.9231 12.023 24.3364 13.0041 25.0721 13.7274C25.8078 14.4508 26.8057 14.8571 27.8462 14.8571H34.3846V32.8571C34.3846 33.5391 34.1091 34.1932 33.6186 34.6754C33.1281 35.1577 32.4629 35.4286 31.7692 35.4286H25.8663C25.0451 36.4057 24.0957 37.2697 23.0417 38H31.7692C33.1565 38 34.487 37.4582 35.4679 36.4937C36.4489 35.5292 37 34.2211 37 32.8571V13.3503C36.9991 12.3277 36.5852 11.3472 35.8492 10.6246L28.228 3.12886C27.4926 2.40624 26.4954 2.00022 25.4557 2H16.0769ZM33.8432 12.2857H27.8462C27.4993 12.2857 27.1667 12.1503 26.9215 11.9091C26.6762 11.668 26.5385 11.341 26.5385 11V5.10371L33.8432 12.2857ZM14.7692 38C13.2237 38 11.6932 37.7007 10.2653 37.1192C8.83743 36.5377 7.54 35.6853 6.44713 34.6108C5.35425 33.5363 4.48734 32.2607 3.89588 30.8568C3.30442 29.4529 3 27.9482 3 26.4286C3 24.909 3.30442 23.4043 3.89588 22.0004C4.48734 20.5965 5.35425 19.3208 6.44713 18.2463C7.54 17.1718 8.83743 16.3195 10.2653 15.738C11.6932 15.1564 13.2237 14.8571 14.7692 14.8571C17.8906 14.8571 20.8842 16.0763 23.0913 18.2463C25.2985 20.4164 26.5385 23.3596 26.5385 26.4286C26.5385 29.4975 25.2985 32.4407 23.0913 34.6108C20.8842 36.7809 17.8906 38 14.7692 38V38ZM18.6923 20V20.3909C17.1968 19.5412 15.4577 19.2008 13.7453 19.4226C12.0328 19.6444 10.4427 20.416 9.222 21.6174C8.98379 21.8599 8.85199 22.1847 8.85496 22.5218C8.85794 22.8589 8.99547 23.1814 9.23793 23.4198C9.48039 23.6581 9.80837 23.7934 10.1512 23.7963C10.4941 23.7992 10.8244 23.6696 11.0711 23.4354C11.8736 22.6464 12.9153 22.1355 14.0391 21.9796C15.1629 21.8237 16.3077 22.0315 17.3009 22.5714H16.0769C15.7301 22.5714 15.3975 22.7069 15.1522 22.948C14.907 23.1891 14.7692 23.5161 14.7692 23.8571C14.7692 24.1981 14.907 24.5252 15.1522 24.7663C15.3975 25.0074 15.7301 25.1429 16.0769 25.1429H20C20.3468 25.1429 20.6794 25.0074 20.9247 24.7663C21.1699 24.5252 21.3077 24.1981 21.3077 23.8571V20C21.3077 19.659 21.1699 19.332 20.9247 19.0909C20.6794 18.8497 20.3468 18.7143 20 18.7143C19.6532 18.7143 19.3206 18.8497 19.0753 19.0909C18.8301 19.332 18.6923 19.659 18.6923 20ZM14.6332 33.5C15.6864 33.5177 16.7323 33.3267 17.7088 32.9384C18.6852 32.5501 19.572 31.9723 20.3165 31.2397C20.4414 31.1211 20.541 30.9792 20.6095 30.8224C20.6781 30.6655 20.7141 30.4968 20.7156 30.3261C20.7171 30.1554 20.6841 29.9861 20.6183 29.8281C20.5526 29.6701 20.4555 29.5265 20.3327 29.4058C20.2099 29.2851 20.0639 29.1896 19.9032 29.1249C19.7425 29.0603 19.5703 29.0278 19.3966 29.0292C19.223 29.0307 19.0514 29.0662 18.8919 29.1336C18.7323 29.201 18.588 29.2989 18.4674 29.4217C17.6649 30.2107 16.6231 30.7217 15.4993 30.8775C14.3756 31.0334 13.2307 30.8257 12.2375 30.2857H13.4615C13.8084 30.2857 14.141 30.1503 14.3862 29.9091C14.6315 29.668 14.7692 29.341 14.7692 29C14.7692 28.659 14.6315 28.332 14.3862 28.0909C14.141 27.8497 13.8084 27.7143 13.4615 27.7143H9.53846C9.19164 27.7143 8.85902 27.8497 8.61378 28.0909C8.36854 28.332 8.23077 28.659 8.23077 29V32.8571C8.23077 33.1981 8.36854 33.5252 8.61378 33.7663C8.85902 34.0074 9.19164 34.1429 9.53846 34.1429C9.88528 34.1429 10.2179 34.0074 10.4631 33.7663C10.7084 33.5252 10.8462 33.1981 10.8462 32.8571V32.4663C11.9999 33.1184 13.3026 33.4731 14.6332 33.4974V33.5Z" fill="#374957"/>
</svg>
