<svg width="30" height="30" viewBox="0 0 30 30" fill="none" xmlns="http://www.w3.org/2000/svg">
<path d="M7.5 11.9531C7.5 12.3794 7.66932 12.7881 7.97072 13.0895C8.27212 13.3909 8.6809 13.5603 9.10714 13.5603C9.53338 13.5603 9.94217 13.3909 10.2436 13.0895C10.545 12.7881 10.7143 12.3794 10.7143 11.9531C10.7143 11.5269 10.545 11.1181 10.2436 10.8167C9.94217 10.5153 9.53338 10.346 9.10714 10.346C8.6809 10.346 8.27212 10.5153 7.97072 10.8167C7.66932 11.1181 7.5 11.5269 7.5 11.9531ZM19.2857 11.9531C19.2857 12.3794 19.455 12.7881 19.7564 13.0895C20.0578 13.3909 20.4666 13.5603 20.8929 13.5603C21.3191 13.5603 21.7279 13.3909 22.0293 13.0895C22.3307 12.7881 22.5 12.3794 22.5 11.9531C22.5 11.5269 22.3307 11.1181 22.0293 10.8167C21.7279 10.5153 21.3191 10.346 20.8929 10.346C20.4666 10.346 20.0578 10.5153 19.7564 10.8167C19.455 11.1181 19.2857 11.5269 19.2857 11.9531ZM15 0C6.71652 0 0 6.71652 0 15C0 23.2835 6.71652 30 15 30C23.2835 30 30 23.2835 30 15C30 6.71652 23.2835 0 15 0ZM23.8058 23.8058C22.6607 24.9509 21.3281 25.8482 19.8449 26.4777C18.3147 27.1272 16.6842 27.4554 15 27.4554C13.3158 27.4554 11.6853 27.1272 10.1518 26.4777C8.67077 25.8522 7.3255 24.9447 6.19085 23.8058C5.04576 22.6607 4.14844 21.3281 3.51897 19.8449C2.87277 18.3147 2.54464 16.6842 2.54464 15C2.54464 13.3158 2.87277 11.6853 3.52232 10.1518C4.14779 8.67077 5.05526 7.3255 6.1942 6.19085C7.33929 5.04576 8.67187 4.14844 10.1551 3.51897C11.6853 2.87277 13.3158 2.54464 15 2.54464C16.6842 2.54464 18.3147 2.87277 19.8482 3.52232C21.3292 4.14779 22.6745 5.05526 23.8092 6.1942C24.9542 7.33929 25.8516 8.67187 26.481 10.1551C27.1272 11.6853 27.4554 13.3158 27.4554 15C27.4554 16.6842 27.1272 18.3147 26.4777 19.8482C25.853 21.3287 24.9454 22.673 23.8058 23.8058ZM20.0893 15.7031H18.4788C18.3382 15.7031 18.2176 15.8103 18.2076 15.9509C18.0804 17.6083 16.6908 18.9174 15 18.9174C13.3092 18.9174 11.9163 17.6083 11.7924 15.9509C11.7824 15.8103 11.6618 15.7031 11.5212 15.7031H9.91071C9.87438 15.7031 9.83842 15.7104 9.80502 15.7247C9.77162 15.739 9.74147 15.7599 9.71641 15.7863C9.69136 15.8126 9.67192 15.8437 9.65927 15.8778C9.64662 15.9118 9.64104 15.9481 9.64286 15.9844C9.79018 18.8069 12.1373 21.0603 15 21.0603C17.8627 21.0603 20.2098 18.8069 20.3571 15.9844C20.359 15.9481 20.3534 15.9118 20.3407 15.8778C20.3281 15.8437 20.3086 15.8126 20.2836 15.7863C20.2585 15.7599 20.2284 15.739 20.195 15.7247C20.1616 15.7104 20.1256 15.7031 20.0893 15.7031Z" fill="white"/>
</svg>
