<svg width="405" height="81" viewBox="0 0 405 81" fill="none" xmlns="http://www.w3.org/2000/svg">
<path fill-rule="evenodd" clip-rule="evenodd" d="M62.9277 16.0487C62.9277 11.9698 59.6164 8.65855 55.5376 8.65855H7.39005C3.3113 8.65855 0 11.9698 0 16.0487C0 20.1277 3.3113 23.4389 7.39005 23.4389H55.5376C59.6164 23.4389 62.9277 20.1277 62.9277 16.0487Z" fill="#1273EB"/>
<path fill-rule="evenodd" clip-rule="evenodd" d="M77.3637 40.9379C77.3637 36.8589 74.0524 33.5477 69.9737 33.5477H21.8261C17.7473 33.5477 14.436 36.8589 14.436 40.9379C14.436 45.0169 17.7473 48.3281 21.8261 48.3281H69.9737C74.0524 48.3281 77.3637 45.0169 77.3637 40.9379Z" fill="#64CD00"/>
<path fill-rule="evenodd" clip-rule="evenodd" d="M62.9277 65.101C62.9277 61.022 59.6164 57.7108 55.5376 57.7108H7.39005C3.3113 57.7108 0 61.022 0 65.101C0 69.1799 3.3113 72.4912 7.39005 72.4912H55.5376C59.6164 72.4912 62.9277 69.1799 62.9277 65.101Z" fill="#1273EB"/>
<path d="M96.8005 63.8925C96.8005 67.6178 99.7428 70.563 103.466 70.563C107.187 70.563 110.131 67.6178 110.131 63.8925V51.8507H120.272C133.876 51.8507 144.783 44.5801 144.783 30.5447V30.3717C144.783 17.9807 136.04 9.41251 121.572 9.41251H103.466C99.7428 9.41251 96.8005 12.3554 96.8005 16.0768V63.8925ZM110.131 39.9928V21.4434H120.445C127.119 21.4434 131.279 24.6504 131.279 30.6312V30.805C131.279 36.0056 127.379 39.9928 120.705 39.9928H110.131Z" fill="#1273EB"/>
<path d="M158.738 70.0432H192.779C196.072 70.0432 198.757 67.4471 198.757 64.1575C198.757 60.8686 196.072 58.1853 192.779 58.1853H165.317V45.4397H188.447C191.74 45.4397 194.425 42.8437 194.425 39.5548C194.425 36.2652 191.74 33.5826 188.447 33.5826H165.317V21.2696H192.346C195.639 21.2696 198.324 18.6736 198.324 15.3839C198.324 12.0951 195.639 9.41251 192.346 9.41251H158.738C155.016 9.41251 152.073 12.3554 152.073 16.0768V63.3789C152.073 67.1003 155.016 70.0432 158.738 70.0432Z" fill="#1273EB"/>
<path d="M232.798 70.997C249.088 70.997 259.387 61.9955 259.387 43.6323V15.5639C259.387 11.8386 256.445 8.89339 252.723 8.89339C249 8.89339 246.058 11.8386 246.058 15.5639V44.1522C246.058 53.7678 241.117 58.7058 232.971 58.7058C224.824 58.7058 219.884 53.5948 219.884 43.7188V15.5639C219.884 11.8386 216.941 8.89339 213.219 8.89339C209.496 8.89339 206.554 11.8386 206.554 15.5639V44.0657C206.554 61.909 216.509 70.997 232.798 70.997Z" fill="#1273EB"/>
<path d="M270.428 64.0678C270.428 67.7058 273.285 70.5637 276.921 70.5637C280.556 70.5637 283.5 67.7058 283.5 64.0678V33.9255L295.025 51.6815C296.412 53.7601 298.145 55.06 300.571 55.06C302.997 55.06 304.731 53.7601 306.117 51.6815L317.816 33.666V63.8948C317.816 67.532 320.76 70.5637 324.394 70.5637C328.117 70.5637 331.059 67.6185 331.059 63.8948V15.7361C331.059 12.0116 328.117 9.06643 324.394 9.06643H322.923C320.239 9.06643 318.335 10.1926 316.95 12.4449L300.744 38.7762L284.625 12.5314C283.413 10.5394 281.421 9.06643 278.566 9.06643H277.094C273.372 9.06643 270.428 12.0116 270.428 15.7361V64.0678Z" fill="#1273EB"/>
<path d="M372.47 71.0842C391.188 71.0842 404.778 56.974 404.778 39.7293V39.5555C404.778 22.3115 391.361 8.37428 372.643 8.37428C353.925 8.37428 340.334 22.4845 340.334 39.7293V39.9023C340.334 57.1471 353.752 71.0842 372.47 71.0842ZM372.643 58.7938C361.897 58.7938 354.273 50.1282 354.273 39.7293V39.5555C354.273 29.1573 361.724 20.6647 372.47 20.6647C383.216 20.6647 390.842 29.3303 390.842 39.7293V39.9023C390.842 50.3012 383.389 58.7938 372.643 58.7938Z" fill="#1273EB"/>
</svg>
